<?xml version="1.0" encoding="utf-8"?>
<!-- Generator: Adobe Illustrator 20.1.0, SVG Export Plug-In . SVG Version: 6.00 Build 0)  -->
<svg version="1.1" xmlns="http://www.w3.org/2000/svg" xmlns:xlink="http://www.w3.org/1999/xlink" x="0px" y="0px"
	 viewBox="0 0 109 92.7" style="enable-background:new 0 0 109 92.7;" xml:space="preserve">
<style type="text/css">
	.st0{fill:#FFFFFF;}
	.st1{fill:#3C3C3B;}
</style>
<g id="Ebene_2">
</g>
<g id="Ebene_1">
	<g>
		<path class="st0" d="M23.9,52.5c1.8-0.7,3.4-1.7,4.7-3c1.3-1.3,2.3-2.8,3.1-4.6c0.7-1.8,1.1-3.8,1.1-6c0-2-0.3-3.8-0.9-5.3
			s-1.4-2.8-2.5-3.9s-2.4-2-3.8-2.8c-1.5-0.8-3.1-1.5-4.8-2c-0.9-0.3-1.7-0.6-2.6-0.9s-1.7-0.7-2.5-1.1c-0.7-0.4-1.4-1-1.8-1.7
			c-0.5-0.7-0.7-1.6-0.7-2.7c0-1.4,0.5-2.5,1.4-3.3c0.9-0.9,2-1.3,3.3-1.3c1.6,0,2.8,0.5,3.7,1.4c0.8,0.9,1.3,2.2,1.5,3.8h8.7
			c-0.1-1.9-0.5-3.6-1.2-5.2s-1.7-3-2.9-4.2c-1.2-1.2-2.6-2.1-4.2-2.8s-3.4-1-5.2-1c-1.9,0-3.6,0.3-5.3,1c-1.7,0.7-3.1,1.6-4.3,2.7
			c-1.2,1.2-2.2,2.6-2.9,4.1C5.1,15.3,4.7,17,4.7,19c0,2.7,0.5,5,1.6,6.8c1.1,1.9,2.8,3.4,5.1,4.6c0.7,0.3,1.4,0.7,2.1,1
			s1.4,0.6,2.1,0.8c1,0.4,2,0.8,3.1,1.1c1,0.4,2,0.8,2.8,1.4c0.8,0.5,1.5,1.2,2.1,2c0.5,0.8,0.8,1.9,0.8,3.2c0,0.9-0.2,1.6-0.5,2.3
			s-0.8,1.3-1.4,1.8s-1.3,0.9-2,1.2c-0.8,0.3-1.6,0.4-2.4,0.4c-1.8,0-3.2-0.6-4.2-1.8c-1-1.2-1.6-2.6-1.8-4.4H3
			c0.1,2,0.5,3.9,1.3,5.6s1.9,3.2,3.2,4.5s2.9,2.3,4.7,3c1.8,0.7,3.7,1.1,5.7,1.1C20.1,53.6,22.1,53.2,23.9,52.5L23.9,52.5z
			 M74.3,29.2H54.4v8h14.4l-5.7,8.2c-0.5,0.1-1,0.1-1.5,0.2c-0.5,0-1,0.1-1.6,0.1c-3.4,0-6.4-0.8-9-2.5s-4.6-4.1-5.9-7.2
			c-0.4-1-0.7-2-1-3c-0.3-1-0.4-2.1-0.4-3.2c0-2.2,0.4-4.3,1.2-6.2c0.8-2,1.9-3.7,3.3-5.1s3.1-2.6,5-3.4s4-1.3,6.2-1.3
			c2.4,0,4.7,0.6,6.9,1.7c2.2,1.1,4,2.7,5.4,4.8h8.7h1.4c-0.1-0.5-0.3-0.9-0.5-1.2c-0.9-2-2.1-3.9-3.7-5.5s-3.3-3-5.3-4.1
			s-4-2-6.2-2.6S61.7,6,59.6,6c-3.3,0-6.4,0.6-9.4,1.8c-3,1.2-5.5,2.9-7.8,5.1c-2.2,2.1-4,4.7-5.3,7.6s-2,6-2,9.3
			c0,3.2,0.6,6.2,1.7,8.9c1.1,2.8,2.7,5.2,4.7,7.3c2,2.1,4.4,3.8,7,5.1c2.7,1.3,5.5,2.1,8.6,2.4c0.8,0.1,1.7,0.2,2.6,0.2
			c1.4,0,2.9-0.1,4.3-0.4s2.8-0.7,4.2-1.1l15.6-22.8h-9.5L74.3,29.2L74.3,29.2z"/>
		<path class="st1" d="M84.2,55.9L101,29.3h-9.8L78.1,49.2c-1.1,1.7-2.1,3.5-2.8,5.3c-0.7,1.8-1.1,3.7-1.1,5.8
			c0,2.3,0.4,4.5,1.2,6.6c0.8,2,2,3.8,3.4,5.4c1.4,1.5,3.2,2.7,5.2,3.6s4.2,1.3,6.5,1.3s4.4-0.5,6.4-1.4s3.7-2.1,5.1-3.7
			c1.4-1.5,2.6-3.3,3.4-5.4c0.8-2,1.2-4.2,1.2-6.4c0-2-0.4-3.9-1.1-5.8c-0.7-1.8-1.7-3.5-2.9-4.9c-1.3-1.4-2.7-2.5-4.5-3.4
			c-1.4-0.9-3.3-1.3-5.4-1.3l0,0l0,0l-4.9,8.3c0.8-0.3,1.7-0.5,2.7-0.5c1.1,0,2.1,0.2,3.1,0.7c1,0.4,1.8,1,2.5,1.8
			c0.7,0.7,1.3,1.6,1.7,2.6c0.4,1,0.6,2,0.6,3.2c0,1.1-0.2,2.1-0.6,3.1c-0.4,1-0.9,1.8-1.6,2.6c-0.7,0.7-1.5,1.3-2.5,1.8
			c-1,0.4-2,0.7-3.1,0.7s-2.2-0.2-3.2-0.7s-1.8-1.1-2.5-1.9s-1.2-1.7-1.6-2.7c-0.4-1-0.6-2.1-0.6-3.3c0-1.2,0.2-2.3,0.7-3.3"/>
	</g>
</g>
</svg>
